<?xml version="1.0" encoding="utf-8"?>
<!-- Generator: Adobe Illustrator 26.3.0, SVG Export Plug-In . SVG Version: 6.00 Build 0)  -->
<svg version="1.1" id="Layer_1" xmlns="http://www.w3.org/2000/svg" xmlns:xlink="http://www.w3.org/1999/xlink" x="0px" y="0px"
	 width="841.89px" height="595.276px" viewBox="0 0 841.89 595.276" style="enable-background:new 0 0 841.89 595.276;"
	 xml:space="preserve">
<g>
	<g>
		<path d="M523.028,250.203c-0.667-0.582-1.371-1.122-2.042-1.699c-6.303-5.429-10.485-12.277-13.416-19.977
			c-2.252-5.916-4.312-11.919-7.269-17.539c-8.689-16.517-22.176-27.074-40.174-31.726c-10.448-2.7-20.609-1.748-30.125,3.744
			c-0.876,0.506-1.802,0.925-2.703,1.388c-4.454,2.287-9.005,2.266-13.615,0.544c-0.829-0.31-1.615-0.733-2.438-1.058l-4.346-1.735
			l1.31,1.123c1.928,1.652,3.788,3.381,5.616,5.143c1.055,1.017,2.163,1.975,3.361,2.835c4.081,2.932,8.454,3.915,13.265,1.972
			c0.822-0.332,1.653-0.652,2.5-0.912c6.206-1.907,11.789-0.703,16.667,3.534c4.143,3.598,6.74,8.188,8.119,13.467
			c0.199,0.762,0.827,1.615,0.008,2.428c-0.979-0.143-1.516-0.918-2.189-1.448c-5.755-4.532-12.14-6.723-19.513-5.394
			c-1.371,0.247-2.761,0.387-4.132,0.629c-9.24,1.632-17.315-0.713-24.243-7.044c-3.093-2.827-5.936-5.89-8.692-9.042
			c-3.09-3.534-6.274-6.993-10.084-9.775c-13.052-9.53-27.01-11.453-41.942-4.866c-4.1,1.808-7.574,4.597-11.135,7.227
			c-6.595,4.871-13.867,6.569-21.912,5.009l-5.266-1.038l1.893,1.104c1.924,1.212,3.826,2.461,5.777,3.629
			c6.826,4.087,14.018,4.936,21.525,2.199c2.254-0.822,4.404-1.93,6.599-2.913c2.427-1.087,4.816-2.268,7.282-3.255
			c4.573-1.831,9.348-2.223,14.202-1.592c3.721,0.483,7.13,1.84,9.986,4.299c2.97,2.557,4.629,5.771,3.705,9.777
			c-0.911,3.95-3.677,6.141-7.432,7.399c-5.625,1.884-11.414-2.169-10.809-8.353l0.16-3.492l-0.601,1.003
			c-1.535,2.353-2.211,4.773-2.453,7.292c-0.739,7.721,5.304,14.171,13.062,14.026c2.992-0.056,5.691-1.107,8.329-2.401l2.13-1.119
			l0,0c0.185,0.34,0.344,0.695,0.47,1.061c2.601,7.511-1.836,13.908-7.335,17.104c-1.088,0.632-2.252,1.166-3.433,1.601
			c-7.018,2.582-13.472,0.981-19.561-2.819c-3.237-2.02-6.064-4.575-8.796-7.228c-2.819-2.737-5.556-5.593-8.859-7.75
			c-14.741-9.624-29.757-9.419-44.874-0.962c-2.753,1.54-5.287,3.486-7.86,5.331c-5.743,4.117-12.202,5.584-19.094,4.807
			c-3.972-0.448-7.999-1.161-11.394-3.627c0.68,1.887,9.155,9.78,14.563,12.299c5.337,2.792,10.801,3.345,16.485,1.084
			c1.76-0.7,3.574-1.312,5.415-1.746c3.035-0.717,5.829-0.206,7.911,2.339c2.051,2.508,2.102,5.325,1.011,8.245
			c-0.493,1.319-1.26,2.475-2.183,3.535c-2.854,3.277-6.445,5.28-10.691,6.071c-5.78,1.077-11.338,0.339-16.659-2.193
			c-3.46-1.646-6.499-3.911-9.472-6.286c-3.562-2.846-7.12-5.7-11.052-8.037c-16.399-9.745-35.832-7.175-49.001,6.545
			c-2.891,3.012-5.626,6.176-8.363,9.33c-6.071,6.996-17.992,8.555-28.379,1.565l0.036,0.046c-0.082,0.371,7.574,7.598,12.309,9.543
			c6.762,2.777,13.149,2.166,18.919-2.579c1.665-1.369,3.293-2.783,4.921-4.196c7.487-6.499,16.232-9.108,26.046-8.502
			c7.227,0.446,13.897,2.646,20.204,6.136c4.574,2.531,8.653,5.747,12.796,8.888c2.321,1.76,4.691,3.476,7.165,5.009
			c11.734,7.272,23.887,7.549,36.355,2.019l4.713-1.911l-1.214,1.07c-5.185,4.247-9.627,9.002-15.322,12.17
			c-10.22,5.684-23.375,6.076-33.869-3.571c-1.679-1.544-3.273-3.183-4.874-4.81c-2.491-2.531-4.907-5.137-7.438-7.627
			c-10.776-10.6-24.491-12.43-37.653-5.08c-2.664,1.488-5.166,3.207-7.571,5.081c-3.602,2.808-7.268,5.521-11.393,7.545
			c-7.018,3.444-14.347,4.864-22.148,3.65c-5.221-0.812-10.017-2.685-14.528-5.37c-3.376-2.01-6.658-4.191-10.295-5.728
			c-9.447-3.995-18.97-4.289-28.474-0.315c-4.931,2.062-9.505,4.726-13.569,8.149c-1.692,1.425-3.181,3.077-4.444,4.894l0,0
			l3.306-1.393c13.569-5.852,26.192-4.843,37.536,5.195c2.18,1.929,4.195,4.05,6.239,6.128c3.024,3.073,6.017,6.177,9.004,9.286
			c4.278,4.452,9.324,7.807,14.915,10.345c9.627,4.369,19.618,5.891,30.039,3.548c3.972-0.893,7.747-2.397,11.48-3.997
			c3.968-1.7,7.965-3.32,12.26-4.006c9.609-1.535,17.876,0.87,24.258,8.486c4.065,4.851,5.701,10.476,4.231,16.68
			c-0.965,4.073-3.48,7.047-7.847,7.868c-34.101,6.417-62.374-4.211-66.607-5.921c-0.455-0.184-0.911-0.36-1.371-0.529l1.582,1.12
			c8.137,5.77,16.862,10.335,26.711,12.332c9.688,1.964,19.262,4.287,28.673,7.352c5.933,1.932,12.065,2.718,18.37,1.994
			c6.554-0.753,12.486-3.127,18.2-6.244c3.891-2.122,7.744-4.33,11.73-6.258c9.246-4.473,18.969-6.371,29.167-4.409
			c13.1,2.52,23.237,9.614,30.743,20.565c0.696,1.016,1.453,2.044,0.889,3.378c-1.223-2.068-3.169-3.428-5.007-4.858
			c-9.988-7.773-21.209-11.152-33.837-9.23c-6.753,1.028-12.819,3.874-18.649,7.302c-3.714,2.184-7.416,4.394-11.181,6.487
			c-7.229,4.018-15.011,6.012-23.276,6.241c-6.759,0.187-21.524-2.452-22.936-1.989c7.799,4.164,15.218,7.619,23.339,9.404
			c10.809,2.376,20.902,0.728,30.27-5.217c1.889-1.199,3.808-2.352,5.721-3.514c2.952-1.793,6.048-3.342,9.271-4.581
			c5.526-2.124,11.238-3.411,17.163-2.677c7.913,0.98,13.748,5.115,16.806,12.549c3.231,7.853-2.081,14.603-10.48,13.536
			c-2.005-0.255-3.983-0.753-5.959-1.201c-3.905-0.886-7.795-0.834-11.685,0.068c-7.904,1.833-14.506,5.874-19.997,11.794
			c-0.53,0.572-1.205,1.106-1.367,2.225c2.441-1.322,4.5-2.578,6.673-3.587c6.133-2.847,12.542-3.933,19.264-2.709
			c4.71,0.857,8.856,2.988,12.791,5.613c4.015,2.679,8.143,5.145,12.696,6.834c14.965,5.553,30.763-0.1,38.406-10.475
			c1.728-2.346,3.561-4.617,5.397-6.88c3.528-4.347,7.363-8.402,12.025-11.555c11.221-7.589,26.824-8.439,38.593,1.302
			c4.5,3.724,7.665,8.385,10.033,13.669c0.871,1.943,1.459,4.056,2.928,5.662c0.434,0.133,0.786,0.283,1.152,0.347
			c7.553,1.311,13.613-1.651,19.011-6.595c0.895-0.82,2.99-4.132,3.257-4.367c0.297-0.26-0.873,3.91-1.401,4.747
			c-3.297,5.227-7.907,8.568-14.142,9.201c-7.526,0.764-14.363-0.885-20.002-6.287c-1.922-1.841-3.859-3.681-5.919-5.362
			c-6.624-5.404-14.081-5.532-20.987-0.534c-3.368,2.438-5.765,5.674-7.839,9.19c-2.002,3.394-3.466,7.05-5.037,10.651
			c-2.795,6.407-7.634,10.632-14.079,13.107c-2.847,1.093-5.793,1.858-8.812,2.316c-2.262,0.343-4.527,0.663-7.024,1.027
			c0.478,0.427,0.636,0.683,0.846,0.738c6.554,1.699,13.209,2.563,19.961,1.777c6.781-0.789,12.629-3.608,17.302-8.688
			c1.46-1.587,2.909-3.185,4.425-4.717c6.111-6.177,13.188-7.599,21.216-4.105c3.132,1.363,6.138,3.028,9.158,4.635
			c3.259,1.734,6.635,3.156,10.173,4.211c19.477,5.806,39.966-0.985,52.256-17.176c3.97-5.23,6.71-11.046,8.897-17.148
			c4.032-11.247,11.878-18.642,22.785-23.063c0.76-0.308,1.788-0.281,2.13-1.456c-2.423-0.4-4.816-0.476-7.227-0.453
			c-9.059,0.085-16.427,3.756-22.363,10.479c-3.065,3.471-5.107,7.544-6.811,11.803c-1.602,4.004-3.14,8.035-5.24,11.817
			c-6.277,11.303-15.966,17.232-28.805,18.438l-2.368,0.171l3.09-1.136c11.886-4.301,18.892-13.225,23.174-24.64
			c1.289-3.436,2.22-7.009,3.263-10.534c2.213-7.48,6.203-13.569,13.333-17.243c0.32-0.165,0.573-0.46,0.998-0.81
			c-3.586-1.605-6.752-3.666-9.813-5.935c-6.3-4.67-12.084-4.64-18.573-0.055c-1.967,1.39-3.825,2.943-5.852,4.236
			c-7.638,4.874-18.031,6.632-27.068-1.39c-1.897-1.684-3.776-3.397-5.77-4.96c-6.139-4.811-12.913-7.47-20.876-5.91
			c-3.546,0.694-6.695,2.294-9.732,4.162c-2.482,1.526-4.899,3.165-7.433,4.598c-13.396,7.576-28.346,5.136-38.76-6.177
			c-3.987-4.331-7.07-9.263-10.015-14.305c-2.828-4.842-5.97-9.43-10.369-13.02c-0.397-0.324-1.03-0.987-1.212-1.379
			c0.355-0.36,3.463,1.267,4.72,2.096c3.856,2.543,6.905,5.939,9.828,9.459c3.325,4.006,6.812,7.855,10.829,11.19
			c3.902,3.239,8.366,5.175,13.398,5.859c6.677,0.908,12.867-0.632,18.666-3.818c3.662-2.011,7.166-4.309,10.745-6.471
			c3.268-1.974,6.678-3.647,10.386-4.622c9.12-2.399,17.056-0.435,23.59,6.524c1.562,1.663,3.011,3.433,4.595,5.074
			c3.577,3.708,7.947,5.283,13.087,4.711c10.046-1.118,16.501-12.483,12.134-21.791c-0.813,0.877-1.548,1.716-2.331,2.507
			c-5.657,5.718-12.809,6.286-19.204,1.477c-1.72-1.293-3.323-2.743-4.977-4.125c-4.697-3.925-10.092-6.205-16.151-7.053
			c-5.757-0.805-11.376,0.026-16.978,1.186c-6.128,1.269-12.282,1.918-18.498,0.779c-8.84-1.62-15.917-6.313-21.986-12.741
			c-3.916-4.147-7.821-8.306-11.805-12.388c-2.86-2.929-6.206-5.208-9.957-6.877c-7.345-3.267-14.312-2.491-20.932,1.957
			c-3.41,2.292-6.164,5.252-8.584,8.537c-9.533,12.942-22.759,12.943-33.633,9.41c-0.768-0.249-2.048-1.084-2.471-1.407
			c0.16-0.534,8.128,0.56,11.779,0.093c6.385-0.816,11.895-3.392,16.005-8.564c1.585-1.994,2.925-4.137,4.252-6.299
			c1.259-2.052,2.479-4.138,3.881-6.09c11.558-16.096,30.842-18.158,45.557-4.855c2.536,2.293,4.88,4.799,7.291,7.228
			c2.768,2.789,5.46,5.657,8.278,8.394c5.051,4.906,11.12,7.936,18.009,9.251c6.422,1.225,12.629,0.64,18.403-2.708
			c2.332-1.352,4.389-3.001,5.831-5.332c2.063-3.336,2.093-6.676,0.115-10.06c-1.251-2.14-3.086-3.666-5.101-5.026
			c-5.698-3.846-12.083-4.212-18.644-3.713c-2.401,0.182-4.8,0.426-7.205,0.504c-4.365,0.143-8.189-1.317-11.579-4.059
			c-3.186-2.576-5.759-5.696-8.231-8.923c-2.931-3.826-5.862-7.652-9.52-10.844l-1.894-1.681c1.794,0.498,3.539,1.166,5.19,2.027
			c2.191,1.144,4.245,2.527,6.254,3.988c2.461,1.789,4.872,3.647,7.351,5.411c4.371,3.111,9.194,4.101,14.449,2.944
			c1.114-0.245,2.242-0.424,3.361-0.65c4.937-0.995,9.866-0.987,14.659,0.609c6.586,2.194,12.944,1.891,19.228-1.064
			c1.713-0.805,3.525-1.465,5.356-1.94c2.86-0.741,5.766-0.938,8.569,0.347c5.575,2.556,6.679,8.18,2.501,12.654
			c-0.24,0.257-0.423,0.569-0.665,0.898c4.416,0.161,8.339-2.155,10.098-6.036c1.719-3.791,0.774-7.207-1.838-10.213
			c-3.575-4.114-8.241-5.276-13.437-4.478c-3.628,0.557-7.213,1.394-10.819,2.096c-3.986,0.776-7.66,0.123-10.939-2.312
			c0.555-0.076,1.125-0.217,1.659-0.133c5.346,0.837,9.988-0.848,14.332-3.803c1.356-0.923,2.816-1.719,4.301-2.42
			c7.378-3.483,14.42-2.24,20.249,3.464c2.096,2.051,3.808,4.409,5.596,6.709c1.488,1.914,3.142,3.642,5.187,4.978
			c5.144,3.361,12.95,3.31,17.125-3.02c4.113-6.236,9.925-9.594,17.551-9.45c0.078,0.002,0.159-0.168,0.471-0.517
			c-5.162-6.081-6.639-13.645-7.937-21.294c-0.466-2.744-1.152-5.456-1.835-8.158c-1.616-6.393-4.513-12.09-9.288-16.741
			c-0.495-0.482-0.889-1.504-0.866-1.72l0.003-0.027l0.016,0.015c0.36,0.343,8.703,4.881,11.633,8.819
			c2.989,4.017,4.964,8.515,6.511,13.232c1.025,3.127,1.889,6.319,3.103,9.371c4.991,12.552,17.534,19.415,30.847,16.988
			L523.028,250.203z"/>
	</g>
	<g>
		<path d="M494.908,342.893c-0.092,0.381-0.248,0.661-0.204,0.905c0.442,2.442-1.136,3.167-3.04,3.568
			c-2.093,0.441-4.244,0.421-6.303,0.022c-2.269-0.44-3.364-2.229-3.52-4.431c-0.809-11.409-1.556-22.825-1.706-34.264
			c-0.122-9.299-0.195-18.606,0.04-27.9c0.166-6.546,0.71-13.092,1.679-19.588c0.37-2.481,1.809-4.017,4.637-4.394
			c1.463-0.195,3.001-0.226,4.456-0.006c2.598,0.393,2.544,2.808,3.034,4.646c0.278,1.044,0.684,1.582,1.712,1.511
			c4.924-0.34,10.132,0.364,13.857-4.16c1.007-1.223,2.625-1.545,4.248-1.546c15.507-0.007,31.013-0.038,46.52-0.048
			c15.308-0.009,30.617,0.003,45.925-0.003c16.689-0.007,33.379-0.022,50.068-0.04c2.292-0.002,3.671,1.197,4.515,3.655
			c3.787,0,7.695-0.299,11.545,0.05c19.247,1.746,38.391,4.336,56.065,12.719c10.037,4.761,18.597,11.474,21.258,23.225
			c2.372,10.477-1.66,18.981-8.648,26.349c-5.783,6.098-13.415,9.253-21.093,12.072c-13.453,4.94-27.456,7.283-41.727,8.183
			c-5.513,0.348-11.025,0.649-16.549,0.629c-1.046-0.004-1.947,0.297-2.695,1.009c-1.564,1.488-3.402,1.881-5.552,1.945
			c-29.699,0.893-59.408,0.524-89.111,0.827c-10.034,0.103-20.069,0.159-30.103,0.228c-6.709,0.046-13.418,0.063-20.127,0.119
			c-2.456,0.021-4.62-0.781-6.195-2.606c-1.753-2.031-3.886-2.741-6.444-2.688C499.289,342.928,497.126,342.893,494.908,342.893z
			 M648.337,265.652c-42.22,0-84.388,0-126.62,0c-0.943,3.736-1.599,7.495-2.118,11.35c42.94,0,85.811,0,128.738,0
			C648.337,273.218,648.337,269.456,648.337,265.652z M661.706,277.005c0.305-0.015,0.528-0.022,0.751-0.038
			c10.222-0.744,20.438-0.886,30.625,0.472c9.75,1.3,19.141,3.696,27.437,9.288c1.258,0.848,2.461,1.791,3.618,2.775
			c1.126,0.958,2.16,2.024,3.606,3.394c-4.937-7.582-11.531-12.431-19.035-16.147c-10.595-5.247-21.949-7.93-33.568-9.613
			c-4.443-0.643-8.917-1.07-13.433-1.602C661.706,269.475,661.706,273.188,661.706,277.005z M648.679,332.927
			c-41.375,0-82.703,0-124.078,0c0,1.067,0,2.096,0,3.165c41.377,0,82.701,0,124.078,0
			C648.679,335.023,648.679,333.994,648.679,332.927z M488.789,268.281c-1.911-0.12-2.832,0.742-3.251,2.929
			c-1.343,7.013-1.465,14.119-1.455,21.217c0.018,12.157,0.896,24.264,2.523,36.314c0.181,1.34,0.407,2.673,0.623,4.008
			c0.213,1.32,0.44,2.639,0.661,3.958C486.927,313.881,485.697,291.089,488.789,268.281z M661.706,336.092
			c4.428,0.719,8.331,1.326,12.668,1.132c14.23-0.636,28.181-2.811,41.557-7.896c5.102-1.94,9.991-4.317,13.527-8.832
			c-4.559,3.734-8.39,5.292-8.39,5.292c-15.386,6.796-31.702,8.501-48.284,8.62c-3.65,0.026-7.436-0.789-11.077-1.482V336.092z"/>
	</g>
</g>
</svg>
