<svg width="26" height="23" viewBox="0 0 26 23" fill="none" xmlns="http://www.w3.org/2000/svg">
<path d="M12.3518 22.3706L12.6875 22.6747L13.0232 22.3706L14.69 20.8606C14.6901 20.8605 14.6901 20.8604 14.6902 20.8604C17.6415 18.1972 20.1319 15.9495 21.8786 13.8229C23.6307 11.6897 24.6875 9.61667 24.6875 7.29428C24.6875 3.47901 21.6777 0.5 17.8625 0.5C15.9042 0.5 14.0238 1.32372 12.6875 2.64816C11.3512 1.32372 9.47084 0.5 7.5125 0.5C3.69725 0.5 0.6875 3.47901 0.6875 7.29428C0.6875 9.61667 1.74426 11.6897 3.49644 13.8229C5.24315 15.9495 7.73351 18.1972 10.6848 20.8604C10.6849 20.8604 10.6849 20.8605 10.685 20.8606L12.3518 22.3706Z" fill="#EF5DA8" stroke="white"/>
</svg>
