<svg width="437" height="604" viewBox="0 0 437 604" fill="none" xmlns="http://www.w3.org/2000/svg">
<path d="M218.5 452.784C242.76 452.784 262.427 433.236 262.427 409.121L262.427 96.4951C262.427 72.3807 281.967 52.8322 306.07 52.8322C330.174 52.8322 349.713 72.3807 349.713 96.4951L349.713 227.484C349.713 251.598 369.253 271.147 393.357 271.147C417.46 271.147 437 251.598 437 227.484L437 6.10352e-05L-8.2318e-06 2.28314e-05L-3.87307e-05 348.867C-4.08388e-05 372.981 19.5398 392.53 43.6433 392.53C67.7468 392.53 87.2866 372.981 87.2866 348.867L87.2866 313.936C87.2866 289.822 106.826 270.273 130.93 270.273C155.033 270.273 174.573 289.822 174.573 313.936L174.573 409.121C174.573 433.236 194.24 452.784 218.5 452.784Z" fill="#7EA0FD" fill-opacity="0.5"/>
<path d="M262.427 560.337C262.427 536.223 281.967 516.674 306.07 516.674C330.174 516.674 349.713 536.223 349.713 560.337C349.713 584.451 330.174 604 306.07 604C281.967 604 262.427 584.451 262.427 560.337Z" fill="#7EA0FD" fill-opacity="0.5"/>
</svg>
