<svg width="431" height="595" viewBox="0 0 431 595" fill="none" xmlns="http://www.w3.org/2000/svg">
<g opacity="0.5">
<path d="M215.5 148.962C191.573 148.962 172.176 168.22 172.176 191.975V499.943C172.176 523.698 152.905 542.955 129.132 542.955C105.36 542.955 86.0882 523.698 86.0882 499.943V370.906C86.0882 347.151 66.8167 327.894 43.0441 327.894C19.2715 327.894 0 347.151 0 370.906V595H431V251.332C431 227.577 411.728 208.319 387.956 208.319C364.183 208.319 344.912 227.577 344.912 251.332V285.742C344.912 309.497 325.64 328.754 301.868 328.754C278.095 328.754 258.824 309.497 258.824 285.742L258.824 191.975C258.824 168.22 239.427 148.962 215.5 148.962Z" fill="#7EA0FD" fill-opacity="0.5"/>
<path d="M172.176 43.0123C172.176 66.7673 152.905 86.0246 129.132 86.0246C105.36 86.0246 86.0882 66.7673 86.0882 43.0123C86.0882 19.2573 105.36 0 129.132 0C152.905 0 172.176 19.2573 172.176 43.0123Z" fill="#7EA0FD" fill-opacity="0.5"/>
</g>
</svg>
